Patient4_TMGait_0pt2_03_left_20_EMG.mot
version=1
nRows=36
nColumns=33
inDegrees=no
endheader
time	1LAddLong	2LGlutMax	3LGlutMed	4LIliopsoas	5LSemiMemb	6LBicFemLong	7LRecFem	8LVastMed	9LVastLat	10LGasMed	11LTibAnt	12lTibPost	13LPeroneusLong	14LSol	15LExtDigLong	16LFlexDigLong	17RAddLong	18RGlutMax	19RGlutMed	20RIliopsoas	21RSemiMemb	22RBicFemLong	23RRecFem	24RVastMed	25RVastLat	26RGasMed	27RTibAnt	28RTibPost	29RPeroneusLong	30RSol	31RExtDigLong	32RFlexDigLong
43.33	0.016174	-0.023651	0.2301	-0.006561	0.011139	0.14832	0.074615	0.004883	0.086975	0.023193	-0.013733	-0.005493	-0.031281	-0.044098	-0.036469	0.000916	-0.028687	0.018463	0.57495	-0.10452	0.013428	0.021057	0.20813	0.096741	0.1152	0.002136	0.12161	-0.000153	-0.10986	0.041351	-0.004578	-0.013123
43.331	0.005646	-0.012817	0.11948	0.001984	0.006256	0.081482	0.079346	0.005188	-0.12604	0.012512	-0.002136	0.001984	-0.077209	0.005493	0.091705	-0.00946	-0.026245	-0.02594	-0.47104	-0.05188	0.003815	0.007324	0.29648	0.021973	0.057068	0.002747	0.13046	0.006409	-0.18875	0.03952	-0.003052	-0.014191
43.332	0.010071	-0.014801	0.050201	0.004425	0.004425	0.048065	0.074921	0.023346	-0.046234	0.032959	0.011902	-0.007324	-0.2124	-0.094604	0.12665	0.006256	-0.028076	-0.033417	-0.15472	-0.04837	0.059967	0.019836	0.36224	0.028229	-0.013428	0.003815	0.14191	-0.002594	-0.1799	0.039063	-0.001221	-0.018768
43.333	0.003967	-0.048065	0.071106	0.019836	0.00824	0.057068	0.1297	0.02243	-0.039063	0.046692	0.022888	-0.001068	0.13351	-0.2594	0.091095	0.005798	-0.004883	0.009155	0.13962	-0.10605	0.035706	0.029144	0.39108	-0.072021	-0.062103	0.008087	0.084534	-0.001984	0.02655	0.018158	-0.000458	-0.010529
43.334	-0.026245	-0.033417	0.028992	0.021973	-0.005493	0.10696	0.11719	0.016479	-0.030518	0.000153	0.025787	0.00473	-0.053101	-0.03418	0.02243	0.010071	0.000458	-0.028992	-0.60776	-0.062408	0.029755	0.02594	0.24124	-0.18021	-0.075226	0.020752	0.063629	-0.006409	0.12283	0.050964	-0.001831	-0.010834
43.335	-0.01709	-0.041809	0.003967	0.010529	0.004578	0.083008	-0.009155	0.020599	0.057678	-0.043488	0.018921	-0.002289	-0.05188	0.079193	-0.064545	0.014954	-0.003967	0.014954	-0.5426	-0.087891	0.031128	0.035706	0.031281	-0.18829	-0.00412	0.013123	0.074921	-0.001984	0.14435	0.009155	-0.006104	-0.002747
43.336	-0.016022	-0.033264	-0.052338	0.002441	0.027924	0.044556	-0.074463	0.00412	0.13886	0.038147	0.008392	-0.000458	-0.057373	0.16037	-0.088806	0.010681	-0.000153	0.065765	-0.41245	-0.051727	0.034027	0.036163	-0.11078	-0.18753	0.063782	0.000916	0.087738	-0.003967	0.11612	-0.029144	0	-0.005493
43.337	-0.016174	0.004425	-0.072937	0.003357	-0.02121	0.030518	-0.034332	-0.000153	0.18036	-0.034485	0.001221	-0.001984	0.014496	0.16068	-0.10498	0.013275	0.001984	0.08255	-0.51209	-0.010223	0.037384	0.033722	-0.1712	-0.12344	0.080109	-0.00946	0.087128	-0.003052	0.14786	-0.004272	-0.007019	-0.008545
43.338	0.005646	-0.016327	-0.11826	-0.000763	-0.067139	-0.000153	-0.012207	0.004425	0.10605	-0.047607	-0.000153	-0.006561	0.084076	0.011597	-0.056763	-0.001221	0.005341	0.008087	-0.44418	-0.18478	0.05188	0.021667	-0.14725	-0.12482	0.018463	-0.011749	0.069122	-0.005188	0.1091	0.055237	-0.003662	-0.013428
43.339	-0.002441	-0.027771	-0.13443	0.00351	-0.045471	-0.06424	-0.001373	-0.001221	-0.03479	-0.024719	0.001678	-0.006104	-0.094757	-0.045166	-0.008392	0.006714	0.020447	0.031738	0.13001	-0.31586	0.046539	0.021515	0.046692	-0.19119	0.021667	-0.007019	0.092621	-0.003815	0.049133	0.051575	0.000458	-0.010376
43.34	0.015564	-0.007324	-0.019073	-0.005493	0.002441	-0.08316	0.014496	0.001678	-0.10223	0.015869	0.004425	-0.005646	-0.22919	-0.028076	0.003357	0.010529	0.019379	-0.01709	0.052795	-0.18784	0.06485	0.040131	0.048065	-0.12833	0.032501	-0.010986	0.0914	-0.005035	-0.018921	0.014343	-0.00061	-0.011597
43.341	0.027924	0.011902	0.092926	0.006409	0.024872	-0.071716	0.026855	-0.004272	-0.022583	-0.005646	-0.000916	-0.002289	0.27985	0.040131	0.023499	0.006561	0.021515	-0.018158	0.4126	0.242	0.082703	0.053711	0.005341	-0.12589	-0.020142	-0.012054	0.060577	-0.00885	-0.014343	0.031433	-0.000916	-0.016174
43.342	0.036621	-0.033722	-0.026093	0.028534	0.015106	-0.061493	0.020447	-0.010071	0.080261	-0.009918	-0.016632	-0.001984	0.22614	0.04303	0.02243	0.007019	0.036621	-0.10971	0.15823	0.29877	0.02655	0.068359	0.023804	-0.17502	-0.063019	-0.00473	0.008087	-0.00824	0.05127	0.026245	-0.001068	0.000305
43.343	0.047455	0.018463	0.0177	0.01236	0.062561	-0.047607	0.090332	-0.005493	0.054016	0.020905	0.004272	-0.000916	-0.082703	0.0177	0.041199	0.013885	0.030212	-0.059662	0.11017	0.40863	-0.04776	0.060425	0.067902	-0.24674	-0.098114	-0.007629	0.022278	0.00061	0.024719	0.028687	-0.000916	-0.002441
43.344	0.023041	-0.013123	0.053101	0.003204	0.035553	0.063782	0.12039	0.006409	-0.030365	-0.006256	0.010986	-0.001068	-0.18707	0.065308	0.030823	0.006256	0.021667	-0.025024	-0.2243	0.37506	-0.057373	0.03891	0.054474	-0.24643	-0.10788	-0.002899	0.039368	-0.006256	-0.012512	0.021667	0.000916	-0.005341
43.345	0.020294	-0.060577	0.014343	-0.010071	-0.002899	0.070648	0.089569	0.030518	0.000153	-0.040588	0.005188	-0.010681	0.054779	0.14297	0.020294	0.005646	0.011902	-0.015106	-0.38803	0.25207	-0.022125	0.037994	0.031281	-0.16556	-0.11078	-0.00824	0.020905	-0.004883	0.024719	0.033875	-0.001373	-0.012817
43.346	0.026093	-0.046692	0.005341	0.000916	0.016174	0.072937	0.08255	0.039215	0.0354	0.013885	0.002136	-0.001373	0.11383	0.051117	-0.01709	0.007935	0.01709	-0.008087	0.041809	0.083923	0.096588	0.04837	-0.036621	-0.18127	-0.11093	-0.005188	0.005341	-0.006561	0.042267	0.023651	-0.000916	-0.007324
43.347	0.015106	-0.052643	-0.022888	0.026855	0.027771	0.038605	-0.038757	0.023346	0.046234	0.10422	0.005493	-0.011749	-0.03891	-0.049438	-0.023346	0.005951	0.022125	-0.012512	-0.098419	0.016632	0.42297	0.058899	-0.037689	-0.24963	-0.13214	-0.010376	0.031433	-0.006256	0.003204	0.024109	0.001678	-0.018005
43.348	0.022736	-0.038605	-0.037231	0.019989	0.025024	0.02182	-0.16373	0.021057	0.14786	0.14542	0.018921	-0.004578	-0.015717	-0.05249	-0.003662	-0.006561	0.015564	-0.010834	0.021057	-0.010071	0.28946	0.10407	-0.041199	-0.24384	-0.14938	-0.010223	0.036621	-0.001373	0.002747	0.022278	0.001984	-0.011292
43.349	0.011139	-0.020599	-0.053558	0.018311	0.011292	0.025024	-0.081635	0.00412	0.097809	0.14481	0.040283	-0.00061	0.018005	-0.092468	0.00473	0.009918	-0.00824	-0.066071	0.17548	0.12314	0.14221	0.14664	-0.007629	-0.20477	-0.071564	-0.000305	0.037689	-0.001678	-0.022736	0.023804	-0.001373	-0.0177
43.35	0.011902	-0.024109	-0.063171	0.02182	-0.014801	0.031891	0.067444	0.005035	-0.11292	0.11459	0.003815	-0.00351	0.032959	-0.019836	-0.002136	0.003204	-0.011749	0.002594	0.54169	0.10361	-0.021515	0.14496	-0.039825	-0.061646	0.067749	0.002136	0.036316	-0.001526	-0.027618	0.000763	0.000305	-0.023651
43.351	0.005951	-0.022888	-0.088654	0.019836	-0.009918	-0.004578	0.097961	0.007477	-0.24506	0.080719	-0.02243	-0.003662	0.028229	-0.007629	0.025177	0.015869	-0.008392	-0.016937	0.522	-0.005341	-0.10986	0.13473	-0.049896	-0.002136	0.22171	0.001068	0.022736	-0.001526	-0.002289	0.003967	-0.001526	-0.012207
43.352	0.00061	-0.019989	-0.042725	0.009918	-0.001526	-0.041809	0.10162	-0.013275	-0.1088	0.043793	-0.059052	-0.001526	-0.028839	-0.053558	0.048981	-0.000763	-0.01236	-0.000305	-0.00824	-0.11353	0.13382	0.1976	0.072021	-0.052948	0.21545	0.001678	-0.009003	-0.001373	0.021515	0.03479	0.000153	-0.014343
43.353	-0.005798	-0.019684	-0.029755	0.005188	-0.006409	-0.038605	0.03891	-0.042114	0.058899	-0.017548	-0.15305	0.001984	-0.021973	-0.040588	0.12177	0.014496	0.002747	0.004578	-0.063019	-0.10346	0.40985	0.16876	0.20721	0.009308	0.11993	0.00061	0.002441	-0.006561	0.026093	0.046692	-0.000458	-0.006104
43.354	-0.002594	-0.002747	-0.087585	0.006714	0.003815	0.016174	0.083923	0.011902	0.031281	-0.00885	-0.040894	0.002747	0.019073	0.045776	0.045471	0.020142	0.016632	0.014801	-0.065918	-0.12634	0.40054	0.21179	0.21622	0.13992	0.091095	-0.000916	0.020905	0.000916	-0.036316	0.03479	0	-0.005951
43.355	-0.011597	-0.046082	-0.070953	0.007019	0	0.057831	0.15167	0.02655	-0.10803	-0.010681	0.10925	-0.005188	0.004883	0.067444	-0.059509	0.016479	0.008087	0.030975	-0.060272	-0.086517	0.354	0.19134	0.21744	0.17227	0.088654	0.000458	0.030212	-0.003052	-0.12192	0.021973	0.003204	-0.009308
43.356	-0.00824	-0.023193	-0.07309	-0.010071	-0.037994	0.076294	0.070496	0.045929	-0.22873	0.034027	0.12146	-0.007324	-0.098114	0.028076	0.37262	0.005646	0.001831	-0.016327	-0.17609	-0.027924	0.29648	0.17166	0.26566	0.16739	0.000305	0.001678	0.039215	-0.002747	-0.12711	0.027618	0.000458	-0.013885
43.357	-0.02121	-0.023193	0.023651	0.006866	-0.038147	0.066986	-0.000916	0.042877	-0.14694	0.039063	-0.042267	-0.000763	-0.18082	0.14023	0.084839	0.015411	0.015411	-0.011139	0.049438	0.000763	0.21942	0.14847	0.31143	0.12222	-0.023804	0.005646	0.030518	-0.003967	-0.1149	0.00412	-0.004272	-0.010681
43.358	-0.015411	0.011597	0.007935	0.009308	-0.021057	0.022278	-0.06485	0.026093	-0.033875	-0.003967	-0.12344	-0.012512	-0.088348	0.25421	0.31754	0.020142	0.03006	0.028381	0.12726	-0.004883	0.24689	0.12299	0.17044	0.065613	-0.070343	0.00824	0.024109	-0.001984	-0.028076	-0.005951	-0.001526	-0.009918
43.359	-0.014343	-0.006866	-0.02655	0.005951	-0.014038	0.019226	-0.04364	0.013733	0.068207	-0.024261	-0.021973	-0.006409	0.072174	0.21805	-0.19531	0.02243	0.018616	0.039368	0.057678	-0.02594	0.25528	0.12283	0.019836	0.029755	-0.00824	0.000305	0.028076	0.000153	0.039063	-0.007782	-0.000305	-0.014648
43.36	-0.027924	0.002441	-0.032654	0.006561	-0.028992	0.027771	-0.035095	-0.00824	0.054626	-0.025177	0.071716	-0.007172	0.037079	0.14725	-0.2124	0.02182	0.017853	-0.030518	-0.017853	-0.056915	0.066833	0.12497	-0.16007	-0.007782	0.1004	0	0.010681	-0.001678	0.12421	-0.035706	-0.002594	-0.010529
43.361	-0.006409	0.023346	-0.02121	0.008087	-0.072479	0.027161	-0.024567	0.000916	-0.042114	-0.018768	0.20294	-0.006104	0.016937	0.078125	-0.28122	0.018158	0.003204	-0.010834	-0.30563	-0.069733	0.054474	0.1799	-0.18539	-0.099487	0.26932	0.000153	0.006561	-0.00824	0.1239	-0.025024	-0.002136	-0.011597
43.362	-0.000458	0.019379	-0.041656	0.006561	-0.11597	0.021057	0.028229	-0.010223	-0.08606	-0.026093	0.10223	-0.00824	0.34424	0.062408	-0.5011	0.007935	-0.011597	0.020447	-0.58716	-0.041351	0.13702	0.20676	-0.10757	-0.12573	0.35355	0.001526	0.010223	-0.000916	0.029755	0.010529	-0.001221	-0.016327
43.363	0.007629	0.001221	-0.066223	0.005798	-0.085144	-0.019989	0.046539	-0.010986	-0.081482	-0.011902	0.036621	-0.007172	0.18753	0.037537	-0.42572	-0.002747	-0.014954	0.11322	-0.2182	-0.072479	0.12344	0.20401	0.096741	-0.10391	0.28442	0.005341	0.017548	-0.002747	-0.007172	0.041351	-0.001068	-0.00946
43.364	0.010071	0.006256	-0.060577	0.012665	-0.036316	-0.042267	0.095673	-0.007019	-0.023804	0.005341	0.12528	-0.010223	0.16037	0.060425	-0.16998	-0.00824	0.014801	0.052185	0.18707	-0.064087	0.1297	0.18921	0.05127	-0.10452	0.14358	0.007019	0.019073	0.001526	-0.023651	0.025787	-0.003662	-0.013733
43.365	0.001984	-0.02121	-0.066986	0.00473	0.061188	-0.04837	0.12253	-0.00412	0.018768	-0.018463	0.032501	-0.002899	-0.16037	0.096741	0.039978	0.009918	0.032196	0.07843	-0.041962	-0.054321	0.11108	0.18234	-0.048523	-0.097961	0.10361	0.013733	0.024414	-0.002136	-0.048523	0.006714	0.00061	-0.009613
